<svg xmlns="http://www.w3.org/2000/svg" viewBox="0 0 512 512">
  <rect width="512" height="512" rx="104" fill="#0b5fbe"/>
  <path d="M104 286h304l-28-78c-7-20-25-32-46-32H178c-21 0-39 12-46 32z" fill="#fff"/>
  <path d="M94 285c0-14 11-25 25-25h274c14 0 25 11 25 25v88c0 14-11 25-25 25H119c-14 0-25-11-25-25z" fill="#4ec6b8"/>
  <circle cx="158" cy="342" r="34" fill="#0e1b26"/><circle cx="354" cy="342" r="34" fill="#0e1b26"/>
  <circle cx="158" cy="342" r="14" fill="#fff"/><circle cx="354" cy="342" r="14" fill="#fff"/>
  <path d="M154 230h204" stroke="#0b5fbe" stroke-width="18" stroke-linecap="round"/>
  <circle cx="105" cy="151" r="24" fill="#fff" opacity=".95"/><circle cx="151" cy="112" r="15" fill="#fff" opacity=".9"/><circle cx="191" cy="142" r="11" fill="#fff" opacity=".85"/>
</svg>
